# xmcd CD database file
#
# Track frame offsets:
#	150
#	13518
#	28346
#	42688
#	56604
#	70365
#	85306
#	100475
#	115504
#	134816
#	153867
#	183513
#	205331
#	219030
#	231316
#	245781
#	256540
#	270503
#	283221
#	296099
#	308789
#
# Disc length: 4274 seconds
#
# Revision: 3
# Processed by: cddbd v1.5.1PL2 Copyright (c) Steve Scherf et al.
# Submitted via: CDex 1.70beta1
#
DISCID=4010b015
DTITLE=Louis Armstrong - Sings and Plays
DYEAR=1900
DGENRE=Jazz
TTITLE0=You Won't Be Satisfied (Until You Break My Heart)
TTITLE1=The Frim Fram Sauce
TTITLE2=Rockin' Chair
TTITLE3=Jack-Armstrong Blues
TTITLE4=Fifty-Fifty Blues
TTITLE5=Please Stop Playing Those Blues
TTITLE6=A Song Was Born
TTITLE7=Lovely Weather We're Having
TTITLE8=Back O'Town Blues
TTITLE9=Basin Street Blues
TTITLE10=Do You Know What it Means to Miss New Orleans?
TTITLE11=That's My Desire
TTITLE12=Flat Foot Floogie
TTITLE13=My Walking Stick
TTITLE14=This Song is Ended
TTITLE15=Marie
TTITLE16=Carry Me Back to Old Virginny
TTITLE17=Darling Nellie Gray
TTITLE18=Cherry
TTITLE19=W.P.A.
TTITLE20=Boog It
EXTD=
EXTT0=
EXTT1=
EXTT2=
EXTT3=
EXTT4=
EXTT5=
EXTT6=
EXTT7=
EXTT8=
EXTT9=
EXTT10=
EXTT11=
EXTT12=
EXTT13=
EXTT14=
EXTT15=
EXTT16=
EXTT17=
EXTT18=
EXTT19=
EXTT20=
PLAYORDER=
